<svg xmlns="http://www.w3.org/2000/svg" version="1.1" xmlns:xlink="http://www.w3.org/1999/xlink" xmlns:svgjs="http://svgjs.dev/svgjs" width="1500" height="1500" viewBox="0 0 1500 1500"><rect width="1500" height="1500" fill="#333333"></rect><g transform="matrix(0.6666666666666666,0,0,0.6666666666666666,249.39393939393938,543.1377021196736)"><svg viewBox="0 0 396 164" data-background-color="#333333" preserveAspectRatio="xMidYMid meet" height="621" width="1500" xmlns="http://www.w3.org/2000/svg" xmlns:xlink="http://www.w3.org/1999/xlink"><g id="tight-bounds" transform="matrix(1,0,0,1,0.2400000000000091,-0.05454866576442896)"><svg viewBox="0 0 395.52 164.10909733152886" height="164.10909733152886" width="395.52"><g><svg viewBox="0 0 646.6275822266729 268.29861657789303" height="164.10909733152886" width="395.52"><g><rect width="8.265813965574466" height="268.29861657789303" x="248.93287191034196" y="0" fill="#c8d0d8" opacity="1" stroke-width="0" stroke="transparent" fill-opacity="1" class="rect-qz-0" data-fill-palette-color="primary" rx="1%" id="qz-0" data-palette-color="#c8d0d8"></rect></g><g transform="matrix(1,0,0,1,278.83694233029985,0.6674094939748443)"><svg viewBox="0 0 367.790639896373 266.96379758994334" height="266.96379758994334" width="367.790639896373"><g id="textblocktransform"><svg viewBox="0 0 367.790639896373 266.96379758994334" height="266.96379758994334" width="367.790639896373" id="textblock"><g><svg viewBox="0 0 367.790639896373 198.764" height="198.764" width="367.790639896373"><g transform="matrix(1,0,0,1,0,0)"><svg width="367.790639896373" viewBox="3.3500000000000028 -31.65 143.15000000000003 80.1" height="198.764" data-palette-color="#c8d0d8"><svg></svg><svg></svg><g class="wordmark-text-0" data-fill-palette-color="primary" id="text-0"><path d="M37.55-17.4v17.4h-3.95v-16.4c0-3.833-1.617-5.75-4.85-5.75v0c-1.6 0-3.033 0.723-4.3 2.17-1.267 1.453-1.9 3.497-1.9 6.13v0 13.85h-3.95v-16.4c0-3.833-1.617-5.75-4.85-5.75v0c-1.6 0-3.033 0.723-4.3 2.17-1.267 1.453-1.9 3.497-1.9 6.13v0 13.85h-3.9v-25.35h3.9v4.1c1.4-2.967 3.783-4.45 7.15-4.45v0c3.9 0 6.367 1.65 7.4 4.95v0c0.733-1.6 1.76-2.827 3.08-3.68 1.313-0.847 2.787-1.27 4.42-1.27v0c2.633 0 4.617 0.75 5.95 2.25 1.333 1.5 2 3.517 2 6.05zM52.3-3.05v0c1.8 0 3.233-0.51 4.3-1.53 1.067-1.013 1.6-2.303 1.6-3.87v0-3.25h-4.4c-2.133 0-3.733 0.417-4.8 1.25-1.067 0.833-1.6 1.883-1.6 3.15 0 1.267 0.417 2.29 1.25 3.07 0.833 0.787 2.05 1.18 3.65 1.18zM58.25 0v-3c-1.3 2.167-3.667 3.25-7.1 3.25v0c-2.367 0-4.273-0.7-5.72-2.1-1.453-1.4-2.18-3.167-2.18-5.3v0c0-2.433 0.927-4.327 2.78-5.68 1.847-1.347 4.37-2.02 7.57-2.02v0h4.6v-1.3c0-2-0.45-3.51-1.35-4.53-0.9-1.013-2.417-1.52-4.55-1.52v0c-2.7 0-5.1 0.717-7.2 2.15v0-3.95c1.9-1.167 4.4-1.75 7.5-1.75v0c6.367 0 9.55 3.233 9.55 9.7v0 16.05zM84.4-6.75v0c0 2.167-0.757 3.883-2.27 5.15-1.52 1.267-3.597 1.9-6.23 1.9v0c-3.067 0-5.55-0.517-7.45-1.55v0-3.85c2.233 1.333 4.633 2 7.2 2v0c1.533 0 2.7-0.3 3.5-0.9 0.8-0.6 1.2-1.417 1.2-2.45v0c0-1.2-0.44-2.133-1.32-2.8-0.887-0.667-2.363-1.417-4.43-2.25v0c-1.9-0.733-3.423-1.65-4.57-2.75-1.153-1.1-1.73-2.583-1.73-4.45v0c0-2.1 0.79-3.777 2.37-5.03 1.587-1.247 3.563-1.87 5.93-1.87v0c2.633 0 4.75 0.367 6.35 1.1v0 3.75c-1.533-0.933-3.633-1.4-6.3-1.4v0c-1.333 0-2.393 0.307-3.18 0.92-0.78 0.62-1.17 1.413-1.17 2.38v0c0 0.6 0.117 1.123 0.35 1.57 0.233 0.453 0.693 0.897 1.38 1.33 0.68 0.433 1.18 0.723 1.5 0.87 0.313 0.153 1.003 0.463 2.07 0.93v0c2.133 0.867 3.8 1.85 5 2.95 1.2 1.1 1.8 2.583 1.8 4.45zM102.45-4.4v3.75c-1.1 0.6-2.333 0.9-3.7 0.9v0c-5 0-7.5-2.55-7.5-7.65v0-14.75h-4.05v-3.2h4.05v-6.3h3.95v6.3h7v3.2h-7v14.85c0 2.7 1.267 4.05 3.8 4.05v0c1.3 0 2.45-0.383 3.45-1.15zM126.7-5v3.7c-1.967 1.033-4.367 1.55-7.2 1.55v0c-3.833 0-6.927-1.177-9.28-3.53-2.347-2.347-3.52-5.453-3.52-9.32v0c0-4.033 1.05-7.217 3.15-9.55 2.1-2.333 4.8-3.5 8.1-3.5v0c3.167 0 5.683 1.017 7.55 3.05 1.867 2.033 2.8 4.917 2.8 8.65v0c0 1.067-0.083 2.05-0.25 2.95v0h-17.3c0.3 2.5 1.25 4.417 2.85 5.75 1.6 1.333 3.7 2 6.3 2v0c2.833 0 5.1-0.583 6.8-1.75zM117.95-22.2v0c-1.9 0-3.517 0.683-4.85 2.05-1.333 1.367-2.117 3.317-2.35 5.85v0h13.6v-1c0-2.1-0.567-3.777-1.7-5.03-1.133-1.247-2.7-1.87-4.7-1.87zM138.2-13.85v13.85h-3.95l0.05-25.35h3.9v4.45c1.333-3.133 3.633-4.7 6.9-4.7v0c0.6 0 1.067 0.033 1.4 0.1v0 3.9c-0.7-0.233-1.417-0.35-2.15-0.35v0c-1.767 0-3.233 0.817-4.4 2.45-1.167 1.633-1.75 3.517-1.75 5.65z" fill="#c8d0d8" fill-rule="nonzero" stroke="none" stroke-width="1" stroke-linecap="butt" stroke-linejoin="miter" stroke-miterlimit="10" stroke-dasharray="" stroke-dashoffset="0" font-family="none" font-weight="none" font-size="none" text-anchor="none" style="mix-blend-mode: normal" data-fill-palette-color="primary" opacity="1"></path><path transform="translate(0,38.6)" d="M23.35-25.35v25.35h-3.95v-4.4c-1.333 3.133-3.983 4.7-7.95 4.7v0c-2.5 0-4.473-0.743-5.92-2.23-1.453-1.48-2.18-3.47-2.18-5.97v0-17.45h3.95v16.45c0 1.833 0.467 3.233 1.4 4.2 0.933 0.967 2.2 1.45 3.8 1.45v0c2.1 0 3.777-0.733 5.03-2.2 1.247-1.467 1.87-3.45 1.87-5.95v0-13.95zM34.55-3.85v13.7h-3.9v-35.2h3.9v3.85c1.767-2.833 4.383-4.25 7.85-4.25v0c3.367 0 6.01 1.223 7.93 3.67 1.913 2.453 2.87 5.513 2.87 9.18v0c0 3.9-1.01 7.09-3.03 9.57-2.013 2.487-4.637 3.73-7.87 3.73v0c-3.333 0-5.917-1.417-7.75-4.25zM34.55-12.65v0c0 3.233 0.75 5.617 2.25 7.15 1.5 1.533 3.167 2.3 5 2.3v0c2.133 0 3.883-0.843 5.25-2.53 1.367-1.68 2.05-4.07 2.05-7.17v0c0-2.767-0.667-5-2-6.7-1.333-1.7-3.017-2.55-5.05-2.55-2.033 0-3.793 0.74-5.28 2.22-1.48 1.487-2.22 3.913-2.22 7.28z" fill="#c8d0d8" fill-rule="nonzero" stroke="none" stroke-width="1" stroke-linecap="butt" stroke-linejoin="miter" stroke-miterlimit="10" stroke-dasharray="" stroke-dashoffset="0" font-family="none" font-weight="none" font-size="none" text-anchor="none" style="mix-blend-mode: normal" data-fill-palette-color="primary" opacity="1"></path></g></svg></g></svg></g><g transform="matrix(1,0,0,1,0,220.40225645438343)"><svg viewBox="0 0 215.9298846831606 46.561541135559914" height="46.561541135559914" width="215.9298846831606"><g transform="matrix(1,0,0,1,0,0)"><svg width="215.9298846831606" viewBox="2.25 -38.85 182.93 39.45" height="46.561541135559914" data-palette-color="#c8d0d8"><path d="M20.7-13.95Q20.7-12.85 20.6-11.65L20.6-11.65 6.8-11.65Q7-6.9 8.38-4.95 9.75-3 12.3-3L12.3-3Q13.95-3 15.25-3.53 16.55-4.05 17.95-5.2L17.95-5.2 19.9-2.55Q16.6 0.6 12.15 0.6L12.15 0.6Q7.45 0.6 4.85-2.88 2.25-6.35 2.25-12.9L2.25-12.9Q2.25-19.45 4.73-23.18 7.2-26.9 11.7-26.9L11.7-26.9Q16.05-26.9 18.38-23.63 20.7-20.35 20.7-13.95L20.7-13.95ZM16.45-14.9L16.45-15.25Q16.45-19.55 15.3-21.5 14.15-23.45 11.7-23.45L11.7-23.45Q9.5-23.45 8.25-21.48 7-19.5 6.8-14.9L6.8-14.9 16.45-14.9ZM39.2-37.45L43.6-36.95 43.6 0 39.7 0 39.4-3.35Q37.05 0.6 33.4 0.6L33.4 0.6Q29.3 0.6 27.12-3.03 24.95-6.65 24.95-13.05L24.95-13.05Q24.95-17.2 26.05-20.35 27.15-23.5 29.1-25.2 31.05-26.9 33.55-26.9L33.55-26.9Q37-26.9 39.2-23.85L39.2-23.85 39.2-37.45ZM34.25-2.9Q37.1-2.9 39.2-6.65L39.2-6.65 39.2-20Q37.15-23.4 34.45-23.4L34.45-23.4Q32.15-23.4 30.87-20.9 29.6-18.4 29.6-13.15L29.6-13.15Q29.6-2.9 34.25-2.9L34.25-2.9ZM67.55-26.35L67.55 0 63.75 0 63.45-3.7Q62.2-1.55 60.62-0.48 59.05 0.6 56.95 0.6L56.95 0.6Q54.1 0.6 52.4-1.35 50.7-3.3 50.7-6.45L50.7-6.45 50.7-26.35 55.1-26.35 55.1-6.9Q55.1-2.85 57.95-2.85L57.95-2.85Q59.6-2.85 60.85-4.03 62.1-5.2 63.15-7.3L63.15-7.3 63.15-26.35 67.55-26.35ZM83.29-26.9Q85.29-26.9 86.89-26.25 88.49-25.6 89.99-24.1L89.99-24.1 87.99-21.5Q86.84-22.45 85.77-22.9 84.69-23.35 83.44-23.35L83.44-23.35Q78.14-23.35 78.14-13.05L78.14-13.05Q78.14-7.7 79.49-5.4 80.84-3.1 83.39-3.1L83.39-3.1Q84.64-3.1 85.67-3.55 86.69-4 87.94-4.95L87.94-4.95 89.99-2.3Q86.99 0.6 83.34 0.6L83.34 0.6Q78.64 0.6 76.04-2.8 73.44-6.2 73.44-12.95L73.44-12.95Q73.44-19.55 76.09-23.23 78.74-26.9 83.29-26.9L83.29-26.9ZM109.59-5.6Q109.59-4.2 109.99-3.53 110.39-2.85 111.29-2.45L111.29-2.45 110.34 0.6Q108.49 0.3 107.42-0.58 106.34-1.45 105.89-3.2L105.89-3.2Q103.74 0.6 99.59 0.6L99.59 0.6Q96.34 0.6 94.42-1.58 92.49-3.75 92.49-7.35L92.49-7.35Q92.49-11.55 95.09-13.78 97.69-16 102.64-16L102.64-16 105.24-16 105.24-18.4Q105.24-21 104.22-22.2 103.19-23.4 101.04-23.4L101.04-23.4Q98.49-23.4 95.09-22.05L95.09-22.05 93.99-25.15Q98.04-26.9 101.59-26.9L101.59-26.9Q105.64-26.9 107.62-24.73 109.59-22.55 109.59-18.6L109.59-18.6 109.59-5.6ZM100.49-2.7Q103.59-2.7 105.24-6.9L105.24-6.9 105.24-13.05 103.14-13.05Q99.99-13.05 98.52-11.7 97.04-10.35 97.04-7.55L97.04-7.55Q97.04-5.15 97.94-3.93 98.84-2.7 100.49-2.7L100.49-2.7ZM126.89-3.95L128.59-1.2Q126.34 0.6 123.54 0.6L123.54 0.6Q120.59 0.6 118.96-1.15 117.34-2.9 117.34-5.85L117.34-5.85 117.34-22.9 113.79-22.9 113.79-26.35 117.34-26.35 117.34-32.3 121.74-32.85 121.74-26.35 126.84-26.35 126.39-22.9 121.74-22.9 121.74-5.8Q121.74-3.05 124.09-3.05L124.09-3.05Q124.89-3.05 125.49-3.25 126.09-3.45 126.89-3.95L126.89-3.95ZM132.24-26.35L136.64-26.35 136.64 0 132.24 0 132.24-26.35ZM134.39-38.85Q135.74-38.85 136.53-38 137.34-37.15 137.34-35.8L137.34-35.8Q137.34-34.55 136.51-33.7 135.69-32.85 134.39-32.85L134.39-32.85Q133.09-32.85 132.26-33.7 131.44-34.55 131.44-35.8L131.44-35.8Q131.44-37.1 132.26-37.98 133.09-38.85 134.39-38.85L134.39-38.85ZM152.43-26.9Q157.13-26.9 159.71-23.43 162.28-19.95 162.28-13.2L162.28-13.2Q162.28-6.85 159.66-3.13 157.03 0.6 152.38 0.6L152.38 0.6Q147.73 0.6 145.13-3.05 142.53-6.7 142.53-13.15L142.53-13.15Q142.53-19.8 145.13-23.35 147.73-26.9 152.43-26.9L152.43-26.9ZM152.43-23.35Q149.78-23.35 148.48-20.98 147.18-18.6 147.18-13.15L147.18-13.15Q147.18-7.75 148.48-5.35 149.78-2.95 152.38-2.95L152.38-2.95Q155.03-2.95 156.33-5.35 157.63-7.75 157.63-13.2L157.63-13.2Q157.63-18.6 156.33-20.98 155.03-23.35 152.43-23.35L152.43-23.35ZM178.93-26.9Q181.78-26.9 183.48-24.85 185.18-22.8 185.18-19.35L185.18-19.35 185.18 0 180.78 0 180.78-18.75Q180.78-21.3 180.06-22.38 179.33-23.45 177.88-23.45L177.88-23.45Q175.03-23.45 172.58-18.55L172.58-18.55 172.58 0 168.18 0 168.18-26.35 171.98-26.35 172.33-22.4Q173.63-24.6 175.18-25.75 176.73-26.9 178.93-26.9L178.93-26.9Z" opacity="1" transform="matrix(1,0,0,1,0,0)" fill="#c8d0d8" class="slogan-text-1" data-fill-palette-color="secondary" id="text-1"></path></svg></g></svg></g></svg></g></svg></g><g transform="matrix(1,0,0,1,0,12.371169850196196)"><svg viewBox="0 0 227.29461545595854 243.55627687750064" height="243.55627687750064" width="227.29461545595854"><g><svg xmlns="http://www.w3.org/2000/svg" xmlns:xlink="http://www.w3.org/1999/xlink" version="1.1" x="0" y="0" viewBox="11.933999999999997 8.785850117612409 76.13137482985866 81.57814988238759" enable-background="new 0 0 100 100" xml:space="preserve" height="243.55627687750064" width="227.29461545595854" class="icon-icon-0" data-fill-palette-color="accent" id="icon-0"><g fill="#c8d0d8" data-fill-palette-color="accent"><path d="M35.742 42.748c-13.147 0-23.808 10.658-23.808 23.808 0 13.148 10.66 23.808 23.808 23.808s23.807-10.659 23.807-23.808C59.549 53.406 48.89 42.748 35.742 42.748zM15.226 66.556c0-4.351 1.356-8.382 3.667-11.702l0.264 0.2-0.159 0.641 0.588 0.161L19.478 55l0.481-0.054v-1.123h0.481c0 0 0.086 0.218 0.174 0.446 0.098 0.252 0.201 0.516 0.201 0.516l0.535 0.59c0 0-0.642 0.159-0.854 0.159-0.216 0-0.108 0.856-0.108 0.856l0.749 0.267 0.483-0.894 1.121-1.246 0.534-1.658 1.017-0.963-0.589-0.426 0.644-0.43 0.054-0.589-1.872 0.536-0.061-0.071c1.02-0.866 2.125-1.634 3.301-2.29l0.878 0.382-0.589 1.123h-1.177l-0.214 1.016h0.964l1.391-0.855 0.962-0.962 0.16-0.909-1.39-0.106 0.962-0.643 0.908 0.161-0.158 0.962 1.229-0.75 0.215 0.589 0.268 0.856-0.696 0.855-0.748 0.695-1.125-0.16 0.536 1.123-1.016-0.16-1.713 1.765 0.429 0.589 1.391-0.108 1.177-0.375 1.499-0.158 0.694-0.16c0 0 0-0.429-0.054-0.695-0.054-0.268 0.535 0.053 0.535 0.053l0.643-0.374 0.48-1.498 1.766-0.804-0.268-0.428 0.429-0.534L32.746 48.9l0.375-0.535-1.767-0.589h-0.909l0.32-0.802 0.375-0.375-0.03-0.03c1.488-0.343 3.037-0.53 4.632-0.53 2.483 0 4.862 0.441 7.066 1.25l-0.055 0.125-0.891-0.059v0.535l0.357 0.237v0.476l0.298 0.415-1.07-0.653-0.713 0.357 0.356 0.832 0.179 0.951 0.476 0.535 1.127 0.179-0.235 0.475-0.239 0.715 1.011 0.653-0.06 0.297-1.901-1.604-0.117 0.595 0.831 0.831 0.476 0.179-1.071 0.237-0.118 0.535-0.772-0.773-0.477-1.009-0.177-1.012-0.477 0.594 0.356 1.427 0.594 0.418-0.236 1.365-0.357-0.178 0.06 0.714-0.536-0.061-0.533-0.773h-0.653l-0.951-0.119-0.952 0.061-0.892 0.714-0.594 1.01-1.249 0.952-0.119 0.533v0.656l0.298 0.653 0.595-0.477 0.177 0.357 0.299 0.534 0.059 0.12 0.297 0.356 0.536-0.355-0.06-1.309 0.653-0.833c0 0 0.033-0.141 0.069-0.303 0.051-0.217 0.108-0.469 0.108-0.469l0.238-0.656 0.417 0.061-0.119 0.535-0.239 1.188 1.131-0.118 0.417 0.118-0.893 0.24 0.119 0.594-1.013 0.652 0.061 0.655-0.891 0.238-0.178 0.475-0.714-0.237h-0.476V59.66l-0.536 0.18v0.534l-1.486 1.189L31.52 61.86l-0.355 0.416-1.188-0.298-0.061 0.536 0.773 0.297-0.06 1.069-2.142-0.06-0.296 0.476-0.298 0.832-0.356 0.716 0.535 0.594 0.595 0.712 1.903-0.595 0.119-0.713 0.417-0.357 0.713-0.238-0.06-0.475 0.654-0.179 0.951-0.179 0.595 0.713 1.07 0.774 0.475 0.771v0.357l0.594-0.357-0.296-0.533 0.119-0.597-0.536-0.236-0.475-0.653 0.297-0.953 0.534 0.773 0.771 0.596 0.297 1.07 0.774 0.593 0.179 0.654 0.357-0.772-0.119-0.357 0.177-0.297 1.128-0.951 0.239-1.189 0.477-0.356 0.593 0.06 0.894-0.893 0.058 0.715 1.307 0.415v0.654h-1.068l-1.605 0.832-1.307 0.714 0.355 0.772 1.189 0.237 0.654 0.298 0.713-0.475 0.059 2.021-2.021 0.416-2.14-0.595-0.832 0.654 0.356 0.356-0.655-0.119-2.078-0.772-0.595 0.06-0.477-0.773V67.09h-1.07l-0.594-0.119-1.902 0.417-1.486-0.119-0.654 0.357-0.416 0.06-0.237 0.771-1.367 0.951-1.903 1.428-0.119 1.841-0.534 1.19 0.059 0.712 0.476 0.834 1.368 2.317 1.427 0.654 2.377 0.179-0.119-1.012-0.534-0.296 0.237-0.536 0.416 0.476 0.417 1.248 1.782 0.12 0.714 0.713 1.011 0.416 0.118 1.724 1.071 1.367 1.01 1.783-0.892 1.07 0.911 1.416C24.007 86.656 15.226 77.634 15.226 66.556zM42.772 85.836l2.48-1.804-0.892-2.199 2.854-3.745 0.89-2.378 0.416-1.309-1.485 0.715-0.892 0.179-2.198-1.368L43.29 72.44l-0.831-0.832L41.39 69.23l0.891 0.714 1.666 1.843 0.594 0.831 1.188 0.596 0.356 1.546 1.428-0.952 1.724-2.141 0.832-2.198-0.654-0.534-0.357-0.655-0.416 0.773-0.831 0.951-1.19-1.31-0.355-1.009 0.832 0.179 0.832 0.415 1.189-0.415 0.714 0.237 1.9-1.308 1.071 0.594 0.653-0.356 1.422 2.238 0.703-0.672 0.014-0.853 0.06-2.557 0.437-1.211c0.107 0.845 0.168 1.704 0.168 2.578C56.259 75.417 50.642 82.966 42.772 85.836z" fill="#c8d0d8" data-fill-palette-color="accent"></path><path d="M87.597 20.826L69.667 8.96c-0.231-0.155-0.519-0.21-0.793-0.151l-19.859 4.193c-0.4 0.084-0.715 0.396-0.805 0.798l-0.119 0.537c-0.094 0.423 0.082 0.86 0.445 1.1l8.314 5.503-0.339 1.533c-3.004 2.252-4.957 5.83-4.957 9.871 0 6.816 5.529 12.346 12.342 12.346 6.814 0 12.344-5.529 12.344-12.346 0-1.464-0.269-2.863-0.737-4.166 0.185-0.236 0.312-0.488 0.371-0.755l0.414-1.876 5.364-1.133c0.667 0.943 1.103 2.088 1.212 3.547-0.545 0.282-0.922 0.844-0.922 1.5 0 0.551 0.267 1.034 0.674 1.344-0.461 2.352-1.076 6.673 0.15 8.589 0.361 0.563 0.873 0.924 1.479 1.039 0.048 0.009 0.096 0.014 0.144 0.014 0.356 0 0.674-0.253 0.744-0.617 0.078-0.411-0.192-0.809-0.604-0.887-0.133-0.025-0.308-0.09-0.485-0.367-0.433-0.676-0.534-2.01-0.454-3.516 0.374 1.168 0.949 2.219 1.836 2.803 0.352 0.232 0.821 0.133 1.051-0.217s0.133-0.82-0.217-1.051c-1.192-0.785-1.695-3.477-1.803-5.66 0.52-0.289 0.875-0.837 0.875-1.474 0-0.667-0.389-1.238-0.949-1.514-0.1-1.555-0.504-2.82-1.128-3.871l3.861-0.816c0.401-0.084 0.716-0.396 0.805-0.797l0.119-0.537C88.135 21.503 87.958 21.064 87.597 20.826zM67.042 16.721c0.017-0.137 0.156-0.249 0.415-0.304 0.516-0.108 1.313 0.054 1.78 0.362 0.233 0.154 0.34 0.316 0.322 0.454l-0.076 0.376c-0.018 0.137-0.156 0.248-0.414 0.303-0.518 0.109-1.313-0.053-1.78-0.361-0.233-0.155-0.34-0.317-0.323-0.454L67.042 16.721z" fill="#c8d0d8" data-fill-palette-color="accent"></path><path d="M63.896 47.08c-2.799 0-5.464 0.698-7.888 1.959 4.069 4.702 6.54 10.824 6.54 17.517 0 4.897-1.326 9.489-3.63 13.444h18.437c3.72 0 6.73-3.68 6.73-8.23C84.086 58.141 75.043 47.08 63.896 47.08z" fill="#c8d0d8" data-fill-palette-color="accent"></path></g></svg></g></svg></g></svg></g><defs></defs></svg><rect width="395.52" height="164.10909733152886" fill="none" stroke="none" visibility="hidden"></rect></g></svg></g></svg>